<svg width="31" height="33" viewBox="0 0 31 33" fill="none" xmlns="http://www.w3.org/2000/svg">
<g clip-path="url(#clip0_176_9)">
<path d="M27.5556 26.5833H3.44449C3.2161 26.5833 2.99708 26.4868 2.83559 26.3148C2.6741 26.1429 2.58337 25.9098 2.58337 25.6667C2.58337 25.4236 2.6741 25.1904 2.83559 25.0185C2.99708 24.8466 3.2161 24.75 3.44449 24.75H27.5556C27.784 24.75 28.003 24.8466 28.1645 25.0185C28.326 25.1904 28.4167 25.4236 28.4167 25.6667C28.4167 25.9098 28.326 26.1429 28.1645 26.3148C28.003 26.4868 27.784 26.5833 27.5556 26.5833Z" fill="#3E3E3E"/>
<path d="M27.5556 17.4167H3.44449C3.2161 17.4167 2.99708 17.3201 2.83559 17.1482C2.6741 16.9763 2.58337 16.7431 2.58337 16.5C2.58337 16.2569 2.6741 16.0237 2.83559 15.8518C2.99708 15.6799 3.2161 15.5833 3.44449 15.5833H27.5556C27.784 15.5833 28.003 15.6799 28.1645 15.8518C28.326 16.0237 28.4167 16.2569 28.4167 16.5C28.4167 16.7431 28.326 16.9763 28.1645 17.1482C28.003 17.3201 27.784 17.4167 27.5556 17.4167Z" fill="#3E3E3E"/>
<path d="M27.5556 8.25H3.44449C3.2161 8.25 2.99708 8.15342 2.83559 7.98151C2.6741 7.80961 2.58337 7.57645 2.58337 7.33333C2.58337 7.09022 2.6741 6.85706 2.83559 6.68515C2.99708 6.51324 3.2161 6.41667 3.44449 6.41667H27.5556C27.784 6.41667 28.003 6.51324 28.1645 6.68515C28.326 6.85706 28.4167 7.09022 28.4167 7.33333C28.4167 7.57645 28.326 7.80961 28.1645 7.98151C28.003 8.15342 27.784 8.25 27.5556 8.25Z" fill="#3E3E3E"/>
</g>
<defs>
<clipPath id="clip0_176_9">
<rect width="31" height="33" fill="white"/>
</clipPath>
</defs>
</svg>
