<svg width="26" height="26" viewBox="0 0 26 26" fill="none" xmlns="http://www.w3.org/2000/svg">
<path d="M13 17.875C10.3188 17.875 8.125 15.6812 8.125 13C8.125 10.3188 10.3188 8.125 13 8.125C15.6812 8.125 17.875 10.3188 17.875 13C17.875 15.6812 15.6812 17.875 13 17.875ZM13 9.75C11.2125 9.75 9.75 11.2125 9.75 13C9.75 14.7875 11.2125 16.25 13 16.25C14.7875 16.25 16.25 14.7875 16.25 13C16.25 11.2125 14.7875 9.75 13 9.75Z" fill="#3E3E3E" fill-opacity="0.5"/>
<path d="M13 21.125C7.81621 21.125 3.26621 17.9725 1.67371 13.26C1.60876 13.0928 1.60876 12.9072 1.67371 12.74C3.26621 8.04375 7.83246 4.875 13 4.875C18.1675 4.875 22.7337 8.0275 24.3262 12.74C24.3912 12.9025 24.3912 13.0975 24.3262 13.26C22.7337 17.9563 18.1675 21.125 13 21.125ZM3.29871 13C4.74496 16.9 8.61246 19.5 13 19.5C17.3875 19.5 21.2387 16.9 22.7012 13C21.255 9.1 17.3875 6.5 13 6.5C8.61246 6.5 4.76121 9.1 3.29871 13Z" fill="#3E3E3E" fill-opacity="0.5"/>
<path d="M22.75 23.5624C22.6434 23.5637 22.5378 23.5427 22.4398 23.5007C22.3419 23.4587 22.2538 23.3967 22.1812 23.3186L2.68125 3.81864C2.35625 3.49364 2.35625 2.98989 2.68125 2.66489C3.00625 2.33989 3.51 2.33989 3.835 2.66489L23.3188 22.1811C23.6438 22.5061 23.6438 23.0099 23.3188 23.3349C23.1562 23.4974 22.945 23.5786 22.75 23.5786V23.5624Z" fill="#3E3E3E" fill-opacity="0.5"/>
</svg>
