<svg width="28" height="28" viewBox="0 0 28 28" fill="none" xmlns="http://www.w3.org/2000/svg">
<path d="M24.8784 23.4063C23.0716 20.2825 20.1753 18.1497 16.8197 17.3808C18.4142 16.7275 19.7324 15.5408 20.5491 14.0235C21.3658 12.5062 21.6303 10.7523 21.2974 9.06162C20.9645 7.37092 20.0548 5.84827 18.7238 4.75382C17.3929 3.65937 15.7232 3.06104 14 3.06104C12.2768 3.06104 10.6071 3.65937 9.27615 4.75382C7.94518 5.84827 7.03553 7.37092 6.70262 9.06162C6.3697 10.7523 6.63418 12.5062 7.45087 14.0235C8.26756 15.5408 9.58578 16.7275 11.1803 17.3808C7.82906 18.1464 4.92843 20.2825 3.12156 23.4063C3.06925 23.5063 3.0576 23.6226 3.08904 23.731C3.12048 23.8393 3.19258 23.9314 3.29027 23.9878C3.38797 24.0443 3.5037 24.0609 3.6133 24.034C3.7229 24.0072 3.81789 23.939 3.87843 23.8438C6.01562 20.1458 9.80218 17.9375 14 17.9375C18.1978 17.9375 21.9844 20.1458 24.1216 23.8438C24.1599 23.9102 24.2151 23.9654 24.2815 24.0038C24.3479 24.0422 24.4233 24.0625 24.5 24.0625C24.5769 24.0628 24.6524 24.0424 24.7187 24.0035C24.819 23.9454 24.8922 23.8499 24.9221 23.7379C24.9521 23.6259 24.9363 23.5067 24.8784 23.4063ZM7.43749 10.5C7.43749 9.20209 7.82238 7.9333 8.54347 6.8541C9.26457 5.77491 10.2895 4.93377 11.4886 4.43707C12.6878 3.94037 14.0073 3.81041 15.2803 4.06363C16.5533 4.31685 17.7226 4.94186 18.6404 5.85964C19.5582 6.77743 20.1832 7.94675 20.4364 9.21975C20.6896 10.4928 20.5597 11.8123 20.063 13.0114C19.5663 14.2105 18.7251 15.2355 17.6459 15.9566C16.5667 16.6776 15.2979 17.0625 14 17.0625C12.2601 17.0605 10.5921 16.3685 9.36184 15.1382C8.13157 13.9079 7.43952 12.2399 7.43749 10.5Z" fill="white"/>
</svg>
