<svg width="249" height="69" viewBox="0 0 249 69" fill="none" xmlns="http://www.w3.org/2000/svg">
<path d="M14.72 42.6C12.7733 42.6 11.0133 42.2667 9.44 41.6C7.86667 40.9333 6.50667 39.9867 5.36 38.76C4.24 37.5067 3.37333 36.0267 2.76 34.32C2.17333 32.5867 1.88 30.6667 1.88 28.56C1.88 26.5067 2.2 24.6267 2.84 22.92C3.48 21.1867 4.37333 19.7067 5.52 18.48C6.66667 17.2267 8.02667 16.2667 9.6 15.6C11.1733 14.9067 12.9067 14.56 14.8 14.56C15.6 14.56 16.4267 14.6267 17.28 14.76C18.1333 14.8667 18.9733 15.0533 19.8 15.32C20.6267 15.5867 21.4133 15.96 22.16 16.44L22.44 22.48H20.88L19.16 16.16L21.36 16.72L21.44 18.4C20.3733 17.4933 19.3067 16.8667 18.24 16.52C17.1733 16.1733 16.0933 16 15 16C13.2667 16 11.6933 16.4933 10.28 17.48C8.86667 18.44 7.74667 19.8667 6.92 21.76C6.09333 23.6267 5.68 25.9067 5.68 28.6C5.68 31.2933 6.05333 33.5733 6.8 35.44C7.57333 37.3067 8.66667 38.7333 10.08 39.72C11.4933 40.68 13.1733 41.16 15.12 41.16C16.0533 41.16 16.96 41.0533 17.84 40.84C18.7467 40.6 19.6933 40.2267 20.68 39.72L19.36 41V38.48C19.36 36.8533 19.3467 35.28 19.32 33.76C19.32 32.2133 19.2933 30.72 19.24 29.28H22.72C22.6933 30.72 22.6667 32.2 22.64 33.72C22.6133 35.24 22.6 36.8267 22.6 38.48V40.4C21.3733 41.0933 20.1067 41.6267 18.8 42C17.4933 42.4 16.1333 42.6 14.72 42.6ZM15.2 30.4V29.28H25.12V30.4L21.28 30.84H20.28L15.2 30.4ZM27.1878 42V40.84L31.8678 40.32H32.6278V42H27.1878ZM30.5878 42C30.6411 40.7733 30.6811 39.4667 30.7078 38.08C30.7345 36.6933 30.7478 35.2667 30.7478 33.8C30.7478 32.3067 30.7478 30.8667 30.7478 29.48V27.6C30.7478 26.2133 30.7478 24.8 30.7478 23.36C30.7478 21.92 30.7345 20.5067 30.7078 19.12C30.6811 17.7067 30.6411 16.4 30.5878 15.2H34.1878C34.1611 16.4 34.1345 17.6933 34.1078 19.08C34.0811 20.4667 34.0678 21.8933 34.0678 23.36C34.0678 24.8 34.0678 26.2133 34.0678 27.6V29.24C34.0678 30.7067 34.0678 32.1867 34.0678 33.68C34.0678 35.1733 34.0811 36.6267 34.1078 38.04C34.1345 39.4533 34.1611 40.7733 34.1878 42H30.5878ZM32.3878 42V40.52H45.1478L43.6678 41.36L45.4278 34.68H46.9078L46.5078 42H32.3878ZM32.3878 29.04V27.6H40.5078V29.04H32.3878ZM40.5078 32.88L39.5878 28.64V27.84L40.5078 23.76H41.7478V32.88H40.5078ZM27.1878 16.32V15.2H32.6278V16.88H31.8678L27.1878 16.32ZM44.7078 22.32L42.9478 15.84L44.4278 16.68H32.3478V15.2H45.7878L46.1878 22.32H44.7078ZM54.5175 42V40.84L59.6375 40.32H60.6775L65.7975 40.84V42H54.5175ZM58.3975 42C58.4508 40.7733 58.4775 39.4667 58.4775 38.08C58.5042 36.6933 58.5175 35.2667 58.5175 33.8C58.5175 32.3067 58.5175 30.8667 58.5175 29.48V27.6C58.5175 26.2133 58.5175 24.8 58.5175 23.36C58.5175 21.92 58.5042 20.5067 58.4775 19.12C58.4775 17.7067 58.4508 16.4 58.3975 15.2H61.9575C61.9308 16.4 61.9042 17.6933 61.8775 19.08C61.8508 20.4667 61.8375 21.8933 61.8375 23.36C61.8375 24.8 61.8375 26.2133 61.8375 27.6V29.48C61.8375 30.8667 61.8375 32.2933 61.8375 33.76C61.8375 35.2267 61.8508 36.6667 61.8775 38.08C61.9042 39.4667 61.9308 40.7733 61.9575 42H58.3975ZM49.3975 22.52L49.7975 15.2H70.5575L70.9575 22.52H69.4775L67.6375 15.44L69.3175 16.68H51.0375L52.7175 15.44L50.8775 22.52H49.3975ZM81.5628 42V40.84L86.2428 40.32H87.2828L91.9228 40.84V42H81.5628ZM84.9628 42C85.0161 40.7733 85.0561 39.4667 85.0828 38.08C85.1095 36.6933 85.1228 35.2667 85.1228 33.8C85.1228 32.3067 85.1228 30.8667 85.1228 29.48V27.6C85.1228 26.2133 85.1228 24.8 85.1228 23.36C85.1228 21.92 85.1095 20.5067 85.0828 19.12C85.0561 17.7067 85.0161 16.4 84.9628 15.2H88.5628C88.5361 16.4267 88.5095 17.7333 88.4828 19.12C88.4561 20.5067 88.4428 21.9333 88.4428 23.4C88.4428 24.84 88.4428 26.3067 88.4428 27.8V29.28C88.4428 30.72 88.4428 32.1867 88.4428 33.68C88.4428 35.1733 88.4561 36.6267 88.4828 38.04C88.5095 39.4533 88.5361 40.7733 88.5628 42H84.9628ZM101.763 42.36C100.536 42.36 99.6295 42.1733 99.0428 41.8C98.4561 41.4 97.9895 40.72 97.6428 39.76L95.4428 33.4C95.0961 32.3333 94.6961 31.5333 94.2428 31C93.8161 30.44 93.2695 30.0667 92.6028 29.88C91.9628 29.6933 91.1228 29.6 90.0828 29.6H86.6428V28.2H91.4428C92.8295 28.2 93.9761 27.9333 94.8828 27.4C95.8161 26.8667 96.5095 26.1467 96.9628 25.24C97.4161 24.3067 97.6428 23.28 97.6428 22.16C97.6428 20.4 97.1761 19.04 96.2428 18.08C95.3361 17.0933 93.8828 16.6 91.8828 16.6H86.6028V15.2H92.0428C94.8428 15.2 97.0561 15.8 98.6828 17C100.309 18.2 101.123 19.9067 101.123 22.12C101.123 23.2933 100.803 24.4133 100.163 25.48C99.5495 26.52 98.5895 27.3867 97.2828 28.08C96.0028 28.7733 94.3361 29.16 92.2828 29.24V28.92C93.1895 28.9467 93.9895 29.0667 94.6828 29.28C95.3761 29.4667 95.9761 29.76 96.4828 30.16C97.0161 30.56 97.4961 31.08 97.9228 31.72C98.3495 32.36 98.7361 33.1467 99.0828 34.08L101.803 41.04L100.363 40.4L104.603 40.84V42C104.336 42.0533 104.056 42.1067 103.763 42.16C103.469 42.2133 103.163 42.2533 102.843 42.28C102.523 42.3333 102.163 42.36 101.763 42.36ZM81.5628 16.32V15.2H87.0428V16.88H86.2428L81.5628 16.32ZM106.758 42V40.84L111.438 40.32H112.478L117.158 40.84V42H106.758ZM110.158 42C110.211 40.7733 110.251 39.4667 110.278 38.08C110.305 36.6933 110.318 35.2667 110.318 33.8C110.318 32.3067 110.318 30.8667 110.318 29.48V27.6C110.318 26.2133 110.318 24.8 110.318 23.36C110.318 21.92 110.305 20.5067 110.278 19.12C110.251 17.7067 110.211 16.4 110.158 15.2H113.758C113.731 16.4 113.705 17.6933 113.678 19.08C113.651 20.4667 113.638 21.8933 113.638 23.36C113.638 24.8 113.638 26.2133 113.638 27.6V29.48C113.638 30.8667 113.638 32.2933 113.638 33.76C113.638 35.2267 113.651 36.6667 113.678 38.08C113.705 39.4667 113.731 40.7733 113.758 42H110.158ZM106.758 16.32V15.2H117.158V16.32L112.478 16.88H111.438L106.758 16.32ZM120.508 42V40.84L125.188 40.32H125.948V42H120.508ZM123.908 42C123.961 40.7733 124.001 39.4667 124.028 38.08C124.055 36.6667 124.068 35.2133 124.068 33.72C124.068 32.2 124.068 30.7067 124.068 29.24V27.6C124.068 26.2133 124.068 24.8 124.068 23.36C124.068 21.92 124.055 20.5067 124.028 19.12C124.001 17.7067 123.961 16.4 123.908 15.2H127.508C127.481 16.4 127.455 17.6933 127.428 19.08C127.401 20.4667 127.388 21.8933 127.388 23.36C127.388 24.8 127.388 26.2133 127.388 27.6V29.24C127.388 30.7067 127.388 32.1867 127.388 33.68C127.388 35.1733 127.401 36.6267 127.428 38.04C127.455 39.4533 127.481 40.7733 127.508 42H123.908ZM125.908 42V40.56H130.468C132.575 40.56 134.335 40.08 135.748 39.12C137.188 38.16 138.268 36.7867 138.988 35C139.735 33.2133 140.108 31.0933 140.108 28.64C140.108 24.6133 139.295 21.6 137.668 19.6C136.068 17.6 133.788 16.6 130.828 16.6H125.908V15.2H131.308C133.815 15.2 136.001 15.72 137.868 16.76C139.761 17.8 141.228 19.32 142.268 21.32C143.335 23.2933 143.868 25.7333 143.868 28.64C143.868 31.52 143.295 33.96 142.148 35.96C141.001 37.9333 139.441 39.44 137.468 40.48C135.495 41.4933 133.268 42 130.788 42H125.908ZM120.508 16.32V15.2H125.948V16.88H125.188L120.508 16.32ZM167.972 42.6C166.479 42.6 165.039 42.3067 163.652 41.72C162.266 41.1067 161.026 40.2133 159.932 39.04C158.839 37.84 157.972 36.3733 157.332 34.64C156.692 32.88 156.372 30.8533 156.372 28.56C156.372 26.3733 156.692 24.4133 157.332 22.68C157.972 20.9467 158.839 19.48 159.932 18.28C161.026 17.08 162.266 16.16 163.652 15.52C165.039 14.88 166.479 14.56 167.972 14.56C169.492 14.56 170.932 14.8667 172.292 15.48C173.679 16.0933 174.919 17 176.012 18.2C177.106 19.4 177.972 20.8667 178.612 22.6C179.252 24.3333 179.572 26.3467 179.572 28.64C179.572 30.8267 179.252 32.7867 178.612 34.52C177.972 36.2533 177.106 37.72 176.012 38.92C174.946 40.12 173.706 41.04 172.292 41.68C170.906 42.2933 169.466 42.6 167.972 42.6ZM167.972 41.16C169.332 41.16 170.506 40.8267 171.492 40.16C172.479 39.4933 173.279 38.5867 173.892 37.44C174.532 36.2667 174.999 34.9333 175.292 33.44C175.612 31.92 175.772 30.32 175.772 28.64C175.772 26.9867 175.612 25.4 175.292 23.88C174.999 22.36 174.532 21.0133 173.892 19.84C173.279 18.6667 172.479 17.7333 171.492 17.04C170.506 16.3467 169.332 16 167.972 16C166.612 16 165.439 16.3467 164.452 17.04C163.466 17.7067 162.652 18.6267 162.012 19.8C161.399 20.9733 160.932 22.32 160.612 23.84C160.319 25.3333 160.172 26.9067 160.172 28.56C160.172 30.24 160.319 31.84 160.612 33.36C160.932 34.88 161.399 36.2267 162.012 37.4C162.652 38.5467 163.466 39.4667 164.452 40.16C165.439 40.8267 166.612 41.16 167.972 41.16ZM182.305 42V40.84L186.985 40.32H187.985L192.985 40.84V42H182.305ZM185.705 42C185.758 40.7733 185.798 39.4667 185.825 38.08C185.852 36.6933 185.865 35.2667 185.865 33.8C185.865 32.3067 185.865 30.8667 185.865 29.48V27.6C185.865 26.2133 185.865 24.8 185.865 23.36C185.865 21.92 185.852 20.5067 185.825 19.12C185.798 17.7067 185.758 16.4 185.705 15.2H189.305C189.278 16.4 189.252 17.6933 189.225 19.08C189.198 20.4667 189.185 21.8933 189.185 23.36C189.185 24.8 189.185 26.2133 189.185 27.6V29.24C189.185 30.7067 189.185 32.1867 189.185 33.68C189.185 35.1733 189.198 36.6267 189.225 38.04C189.252 39.4533 189.278 40.7733 189.305 42H185.705ZM187.505 29.04V27.6H195.705V29.04H187.505ZM195.705 33.08L194.785 28.84V27.84L195.705 23.76H196.945V33.08H195.705ZM182.305 16.32V15.2H187.745V16.88H186.985L182.305 16.32ZM199.745 22.32L197.985 15.84L199.465 16.68H187.465V15.2H200.825L201.225 22.32H199.745ZM212.813 42V40.84L217.493 40.32H218.533L223.213 40.84V42H212.813ZM216.213 42C216.266 40.7733 216.306 39.4667 216.333 38.08C216.359 36.6933 216.373 35.2667 216.373 33.8C216.373 32.3067 216.373 30.8667 216.373 29.48V27.6C216.373 26.2133 216.373 24.8 216.373 23.36C216.373 21.92 216.359 20.5067 216.333 19.12C216.306 17.7067 216.266 16.4 216.213 15.2H219.813C219.786 16.4 219.759 17.6933 219.733 19.08C219.706 20.4667 219.693 21.8933 219.693 23.36C219.693 24.8 219.693 26.2133 219.693 27.6V29.48C219.693 30.8667 219.693 32.2933 219.693 33.76C219.693 35.2267 219.706 36.6667 219.733 38.08C219.759 39.4667 219.786 40.7733 219.813 42H216.213ZM212.813 16.32V15.2H223.213V16.32L218.533 16.88H217.493L212.813 16.32ZM230.963 42V40.84L236.083 40.32H237.123L242.243 40.84V42H230.963ZM234.843 42C234.896 40.7733 234.923 39.4667 234.923 38.08C234.949 36.6933 234.963 35.2667 234.963 33.8C234.963 32.3067 234.963 30.8667 234.963 29.48V27.6C234.963 26.2133 234.963 24.8 234.963 23.36C234.963 21.92 234.949 20.5067 234.923 19.12C234.923 17.7067 234.896 16.4 234.843 15.2H238.403C238.376 16.4 238.349 17.6933 238.323 19.08C238.296 20.4667 238.283 21.8933 238.283 23.36C238.283 24.8 238.283 26.2133 238.283 27.6V29.48C238.283 30.8667 238.283 32.2933 238.283 33.76C238.283 35.2267 238.296 36.6667 238.323 38.08C238.349 39.4667 238.376 40.7733 238.403 42H234.843ZM225.843 22.52L226.243 15.2H247.003L247.403 22.52H245.923L244.083 15.44L245.763 16.68H227.483L229.163 15.44L227.323 22.52H225.843Z" fill="#FAFAFA"/>
<path d="M59.1 63V62.18L61.1 61.88H61.5L63.68 62.18V63H59.1ZM60.42 63L65.04 49.5H66.3L70.9 63H68.94L64.98 51.18H65.38L65.28 51.48L61.36 63H60.42ZM62.54 58.66V57.72H68.26V58.66H62.54ZM66.62 63V62.18L69.14 61.88H69.58L72.06 62.18V63H66.62ZM76.3116 63.26C75.4982 63.26 74.8582 62.9933 74.3916 62.46C73.9249 61.9133 73.6982 60.98 73.7116 59.66L73.7716 54.38L74.1916 54.78L72.3516 54.38V53.66L75.2916 53.38L75.4916 53.58L75.3916 56.16V59.48C75.3916 60.3467 75.5249 60.96 75.7916 61.32C76.0582 61.6667 76.4582 61.84 76.9916 61.84C77.3249 61.84 77.6582 61.7867 77.9916 61.68C78.3382 61.56 78.6782 61.3867 79.0116 61.16C79.3582 60.9333 79.6916 60.6533 80.0116 60.32L80.3116 61.18H80.0116C79.6516 61.66 79.2649 62.0533 78.8516 62.36C78.4382 62.6667 78.0182 62.8933 77.5916 63.04C77.1649 63.1867 76.7382 63.26 76.3116 63.26ZM80.0516 63.16L79.7916 60.82V60.78L79.8516 54.66L78.4316 54.38V53.66L81.3316 53.38L81.5316 53.58L81.4716 56.16V62L82.8316 62.28V63L80.0516 63.16ZM88.7564 63.26C87.8097 63.26 86.9964 63.0667 86.3164 62.68C85.6364 62.28 85.1164 61.7133 84.7564 60.98C84.3964 60.2467 84.2164 59.3733 84.2164 58.36C84.2164 57.28 84.4297 56.36 84.8564 55.6C85.2964 54.84 85.8697 54.26 86.5764 53.86C87.2831 53.4467 88.0364 53.24 88.8364 53.24C89.4364 53.24 89.9897 53.3533 90.4964 53.58C91.0031 53.8067 91.4231 54.12 91.7564 54.52C92.0897 54.9067 92.2964 55.3467 92.3764 55.84C92.3231 56.0933 92.2164 56.2867 92.0564 56.42C91.9097 56.54 91.7097 56.6 91.4564 56.6C91.1231 56.6 90.8697 56.5133 90.6964 56.34C90.5364 56.1533 90.4231 55.92 90.3564 55.64L89.8764 53.9L90.8364 54.66C90.5031 54.4733 90.1697 54.3467 89.8364 54.28C89.5031 54.2 89.1964 54.16 88.9164 54.16C88.3564 54.16 87.8497 54.3133 87.3964 54.62C86.9564 54.9133 86.6097 55.36 86.3564 55.96C86.1031 56.5467 85.9764 57.28 85.9764 58.16C85.9764 59.0533 86.1231 59.78 86.4164 60.34C86.7097 60.9 87.0964 61.3133 87.5764 61.58C88.0697 61.8333 88.6164 61.96 89.2164 61.96C89.5497 61.96 89.8697 61.9267 90.1764 61.86C90.4964 61.78 90.8097 61.6467 91.1164 61.46C91.4231 61.26 91.7231 60.9867 92.0164 60.64L92.4564 61C92.2031 61.48 91.9031 61.8867 91.5564 62.22C91.2231 62.5533 90.8297 62.8133 90.3764 63C89.9231 63.1733 89.3831 63.26 88.7564 63.26ZM95.762 54.56V53.5H99.342V54.56H95.762ZM97.182 63.26C96.4887 63.26 95.9354 63.0733 95.522 62.7C95.1087 62.3267 94.902 61.7533 94.902 60.98C94.902 60.7267 94.902 60.48 94.902 60.24C94.9154 59.9867 94.922 59.6667 94.922 59.28V54.56H93.262V53.68L95.742 53.38L94.922 54.04L95.562 50.78H96.762L96.622 53.9V54.3V60.76C96.622 61.2667 96.722 61.64 96.922 61.88C97.122 62.1067 97.3887 62.22 97.722 62.22C97.9487 62.22 98.162 62.1733 98.362 62.08C98.5754 61.9867 98.8087 61.8533 99.062 61.68L99.542 62.2C99.3687 62.4267 99.162 62.62 98.922 62.78C98.682 62.94 98.4154 63.06 98.122 63.14C97.842 63.22 97.5287 63.26 97.182 63.26ZM100.286 63V62.28L102.466 61.88H102.926L104.926 62.28V63H100.286ZM101.746 63C101.759 62.6933 101.766 62.2933 101.766 61.8C101.779 61.2933 101.786 60.7733 101.786 60.24C101.799 59.6933 101.806 59.2133 101.806 58.8V57.86C101.806 57.3133 101.799 56.86 101.786 56.5C101.786 56.1267 101.773 55.74 101.746 55.34L100.166 55.16V54.46L103.266 53.24L103.566 53.44L103.506 56.16V58.8C103.506 59.2133 103.506 59.6933 103.506 60.24C103.519 60.7733 103.526 61.2933 103.526 61.8C103.539 62.2933 103.553 62.6933 103.566 63H101.746ZM102.546 51.22C102.173 51.22 101.853 51.1 101.586 50.86C101.333 50.62 101.206 50.3133 101.206 49.94C101.206 49.5667 101.333 49.26 101.586 49.02C101.853 48.78 102.173 48.66 102.546 48.66C102.919 48.66 103.233 48.78 103.486 49.02C103.753 49.26 103.886 49.5667 103.886 49.94C103.886 50.3133 103.753 50.62 103.486 50.86C103.233 51.1 102.919 51.22 102.546 51.22ZM111.023 63.26C110.25 63.26 109.51 63.08 108.803 62.72C108.11 62.3467 107.543 61.7933 107.103 61.06C106.663 60.3133 106.443 59.3933 106.443 58.3C106.443 57.1933 106.663 56.2667 107.103 55.52C107.543 54.76 108.11 54.1933 108.803 53.82C109.51 53.4333 110.25 53.24 111.023 53.24C111.796 53.24 112.53 53.4333 113.223 53.82C113.93 54.1933 114.503 54.76 114.943 55.52C115.396 56.2667 115.623 57.1933 115.623 58.3C115.623 59.3933 115.396 60.3133 114.943 61.06C114.503 61.7933 113.93 62.3467 113.223 62.72C112.53 63.08 111.796 63.26 111.023 63.26ZM111.023 62.36C111.596 62.36 112.083 62.2067 112.483 61.9C112.883 61.5933 113.19 61.14 113.403 60.54C113.616 59.94 113.723 59.1933 113.723 58.3C113.723 57.3933 113.616 56.6333 113.403 56.02C113.19 55.4067 112.883 54.9467 112.483 54.64C112.083 54.32 111.596 54.16 111.023 54.16C110.45 54.16 109.963 54.32 109.563 54.64C109.163 54.9467 108.856 55.4067 108.643 56.02C108.443 56.6333 108.343 57.3933 108.343 58.3C108.343 59.1933 108.443 59.94 108.643 60.54C108.856 61.14 109.163 61.5933 109.563 61.9C109.963 62.2067 110.45 62.36 111.023 62.36ZM117.32 63V62.28L119.5 61.88H119.96L121.96 62.28V63H117.32ZM118.78 63C118.793 62.6933 118.8 62.2933 118.8 61.8C118.813 61.2933 118.82 60.7733 118.82 60.24C118.833 59.6933 118.84 59.2133 118.84 58.8V57.84C118.84 57.4667 118.833 57.1467 118.82 56.88C118.82 56.6 118.813 56.34 118.8 56.1C118.8 55.86 118.793 55.6067 118.78 55.34L117.2 55.16V54.46L120 53.24L120.3 53.44L120.54 55.76V55.78V58.8C120.54 59.2133 120.54 59.6933 120.54 60.24C120.553 60.7733 120.56 61.2933 120.56 61.8C120.573 62.2933 120.586 62.6933 120.6 63H118.78ZM123.4 63V62.28L125.58 61.88H126.04L128.04 62.28V63H123.4ZM124.86 63C124.873 62.6933 124.88 62.2933 124.88 61.8C124.893 61.3067 124.9 60.7933 124.9 60.26C124.913 59.7133 124.92 59.2267 124.92 58.8V57.1C124.92 56.18 124.786 55.5467 124.52 55.2C124.266 54.8533 123.846 54.68 123.26 54.68C122.94 54.68 122.626 54.7267 122.32 54.82C122.013 54.9133 121.7 55.06 121.38 55.26C121.06 55.46 120.713 55.7267 120.34 56.06L120.08 55.3H120.24C120.573 54.9 120.946 54.5467 121.36 54.24C121.786 53.9333 122.226 53.6933 122.68 53.52C123.146 53.3333 123.6 53.24 124.04 53.24C124.906 53.24 125.546 53.5333 125.96 54.12C126.386 54.6933 126.6 55.6333 126.6 56.94V58.8C126.6 59.2267 126.6 59.7133 126.6 60.26C126.613 60.7933 126.62 61.3067 126.62 61.8C126.633 62.2933 126.646 62.6933 126.66 63H124.86ZM134.196 63V62.18L136.816 61.88H137.216L139.836 62.18V63H134.196ZM136.016 63C136.043 62.32 136.056 61.64 136.056 60.96C136.07 60.28 136.076 59.5933 136.076 58.9C136.076 58.1933 136.076 57.4933 136.076 56.8V55.82C136.076 55.1267 136.076 54.4333 136.076 53.74C136.076 53.0467 136.07 52.3533 136.056 51.66C136.056 50.9667 136.043 50.28 136.016 49.6H138.036C138.023 50.2667 138.01 50.9467 137.996 51.64C137.983 52.3333 137.976 53.0267 137.976 53.72C137.976 54.4133 137.976 55.1133 137.976 55.82V56.42C137.976 57.2333 137.976 58.0133 137.976 58.76C137.976 59.4933 137.983 60.2133 137.996 60.92C138.01 61.6133 138.023 62.3067 138.036 63H136.016ZM137.016 56.62V55.68H145.376V56.62H137.016ZM142.556 63V62.18L145.176 61.88H145.596L148.196 62.18V63H142.556ZM144.376 63C144.403 62.32 144.416 61.6333 144.416 60.94C144.43 60.2467 144.436 59.5267 144.436 58.78C144.436 58.0333 144.436 57.2467 144.436 56.42V55.82C144.436 55.1267 144.436 54.4333 144.436 53.74C144.436 53.0467 144.43 52.3533 144.416 51.66C144.416 50.9667 144.403 50.28 144.376 49.6H146.376C146.363 50.2667 146.35 50.9467 146.336 51.64C146.323 52.3333 146.316 53.0267 146.316 53.72C146.316 54.4133 146.316 55.1133 146.316 55.82V56.8C146.316 57.48 146.316 58.1667 146.316 58.86C146.316 59.5533 146.323 60.2467 146.336 60.94C146.35 61.62 146.363 62.3067 146.376 63H144.376ZM134.196 50.42V49.6H139.836V50.42L137.216 50.72H136.816L134.196 50.42ZM142.556 50.42V49.6H148.196V50.42L145.596 50.72H145.176L142.556 50.42ZM154.168 63.26C153.394 63.26 152.654 63.08 151.948 62.72C151.254 62.3467 150.688 61.7933 150.248 61.06C149.808 60.3133 149.588 59.3933 149.588 58.3C149.588 57.1933 149.808 56.2667 150.248 55.52C150.688 54.76 151.254 54.1933 151.948 53.82C152.654 53.4333 153.394 53.24 154.168 53.24C154.941 53.24 155.674 53.4333 156.368 53.82C157.074 54.1933 157.648 54.76 158.088 55.52C158.541 56.2667 158.768 57.1933 158.768 58.3C158.768 59.3933 158.541 60.3133 158.088 61.06C157.648 61.7933 157.074 62.3467 156.368 62.72C155.674 63.08 154.941 63.26 154.168 63.26ZM154.168 62.36C154.741 62.36 155.228 62.2067 155.628 61.9C156.028 61.5933 156.334 61.14 156.548 60.54C156.761 59.94 156.868 59.1933 156.868 58.3C156.868 57.3933 156.761 56.6333 156.548 56.02C156.334 55.4067 156.028 54.9467 155.628 54.64C155.228 54.32 154.741 54.16 154.168 54.16C153.594 54.16 153.108 54.32 152.708 54.64C152.308 54.9467 152.001 55.4067 151.788 56.02C151.588 56.6333 151.488 57.3933 151.488 58.3C151.488 59.1933 151.588 59.94 151.788 60.54C152.001 61.14 152.308 61.5933 152.708 61.9C153.108 62.2067 153.594 62.36 154.168 62.36ZM163.929 63.26C163.115 63.26 162.475 62.9933 162.009 62.46C161.542 61.9133 161.315 60.98 161.329 59.66L161.389 54.38L161.809 54.78L159.969 54.38V53.66L162.909 53.38L163.109 53.58L163.009 56.16V59.48C163.009 60.3467 163.142 60.96 163.409 61.32C163.675 61.6667 164.075 61.84 164.609 61.84C164.942 61.84 165.275 61.7867 165.609 61.68C165.955 61.56 166.295 61.3867 166.629 61.16C166.975 60.9333 167.309 60.6533 167.629 60.32L167.929 61.18H167.629C167.269 61.66 166.882 62.0533 166.469 62.36C166.055 62.6667 165.635 62.8933 165.209 63.04C164.782 63.1867 164.355 63.26 163.929 63.26ZM167.669 63.16L167.409 60.82V60.78L167.469 54.66L166.049 54.38V53.66L168.949 53.38L169.149 53.58L169.089 56.16V62L170.449 62.28V63L167.669 63.16ZM175.129 63.26C174.569 63.26 174.056 63.1933 173.589 63.06C173.122 62.94 172.642 62.7533 172.149 62.5L172.069 60.3H173.169L173.689 62.68H172.869V61.62C173.202 61.8733 173.556 62.06 173.929 62.18C174.302 62.3 174.716 62.36 175.169 62.36C175.676 62.36 176.096 62.3 176.429 62.18C176.762 62.0467 177.009 61.8667 177.169 61.64C177.329 61.4 177.409 61.1333 177.409 60.84C177.409 60.4133 177.256 60.0733 176.949 59.82C176.642 59.5533 176.176 59.3133 175.549 59.1L174.629 58.76C174.149 58.5733 173.722 58.36 173.349 58.12C172.989 57.88 172.709 57.5933 172.509 57.26C172.309 56.9133 172.209 56.5133 172.209 56.06C172.209 55.5667 172.342 55.1067 172.609 54.68C172.876 54.2533 173.269 53.9067 173.789 53.64C174.309 53.3733 174.942 53.24 175.689 53.24C176.236 53.24 176.729 53.3133 177.169 53.46C177.622 53.5933 178.062 53.7933 178.489 54.06L178.409 56.1H177.369L176.969 54.06H177.709V54.92C177.389 54.6667 177.056 54.48 176.709 54.36C176.376 54.2267 176.029 54.16 175.669 54.16C175.056 54.16 174.589 54.2867 174.269 54.54C173.962 54.78 173.809 55.1067 173.809 55.52C173.809 55.96 173.942 56.2933 174.209 56.52C174.489 56.7467 174.969 56.9867 175.649 57.24L176.269 57.46C176.936 57.7 177.469 57.9733 177.869 58.28C178.282 58.5733 178.576 58.8933 178.749 59.24C178.936 59.5867 179.029 59.9733 179.029 60.4C179.029 60.9067 178.882 61.38 178.589 61.82C178.296 62.2467 177.862 62.5933 177.289 62.86C176.716 63.1267 175.996 63.26 175.129 63.26ZM185.341 63.26C184.407 63.26 183.587 63.0667 182.881 62.68C182.187 62.2933 181.647 61.7333 181.261 61C180.887 60.2667 180.701 59.3867 180.701 58.36C180.701 57.3333 180.907 56.44 181.321 55.68C181.734 54.9067 182.287 54.3067 182.981 53.88C183.687 53.4533 184.454 53.24 185.281 53.24C185.987 53.24 186.621 53.3933 187.181 53.7C187.741 54.0067 188.187 54.4467 188.521 55.02C188.854 55.58 189.021 56.2667 189.021 57.08C189.021 57.3067 189.007 57.52 188.981 57.72C188.954 57.9067 188.921 58.0667 188.881 58.2H181.481V57.36H186.061C186.607 57.36 186.961 57.26 187.121 57.06C187.281 56.86 187.361 56.6133 187.361 56.32C187.361 55.8533 187.274 55.46 187.101 55.14C186.941 54.82 186.701 54.58 186.381 54.42C186.074 54.2467 185.707 54.16 185.281 54.16C184.827 54.16 184.381 54.2933 183.941 54.56C183.514 54.8133 183.161 55.2267 182.881 55.8C182.601 56.3733 182.461 57.1467 182.461 58.12C182.461 58.9467 182.594 59.6467 182.861 60.22C183.127 60.7933 183.507 61.2267 184.001 61.52C184.507 61.8133 185.107 61.96 185.801 61.96C186.427 61.96 186.974 61.86 187.441 61.66C187.921 61.4467 188.361 61.1133 188.761 60.66L189.181 61C188.914 61.4533 188.607 61.8533 188.261 62.2C187.927 62.5333 187.527 62.7933 187.061 62.98C186.594 63.1667 186.021 63.26 185.341 63.26Z" fill="#FAFAFA"/>
</svg>
