<svg width="28" height="28" viewBox="0 0 28 28" fill="none" xmlns="http://www.w3.org/2000/svg">
<path d="M6.55082 23.3334C6.01416 23.3334 5.56616 23.1537 5.20682 22.7944C4.84749 22.4351 4.66743 21.9867 4.66666 21.4492V6.55091C4.66666 6.01425 4.84671 5.56625 5.20682 5.20691C5.56693 4.84758 6.01493 4.66753 6.55082 4.66675H14.0222V5.83341H6.55082C6.37193 5.83341 6.20743 5.90808 6.05732 6.05741C5.90721 6.20675 5.83255 6.37125 5.83332 6.55091V21.4492C5.83332 21.6281 5.90799 21.7926 6.05732 21.9427C6.20666 22.0929 6.37116 22.1675 6.55082 22.1667H14.0222V23.3334H6.55082ZM19.2057 18.1277L18.3867 17.2889L21.0922 14.5834H10.724V13.4167H21.0922L18.3855 10.7101L19.2057 9.87241L23.3333 14.0001L19.2057 18.1277Z" fill="#FAFAFA"/>
</svg>
