<svg width="28" height="28" viewBox="0 0 28 28" fill="none" xmlns="http://www.w3.org/2000/svg">
<path d="M22.7325 23.513L15.4268 16.2074C14.8435 16.7044 14.1727 17.089 13.4143 17.3612C12.656 17.6334 11.8938 17.7695 11.1277 17.7695C9.25944 17.7695 7.67821 17.1228 6.38399 15.8294C5.08977 14.5352 4.44266 12.9543 4.44266 11.0869C4.44266 9.21944 5.08899 7.63783 6.38166 6.34205C7.6751 5.04549 9.25555 4.39722 11.123 4.39722C12.9912 4.39722 14.5732 5.04433 15.869 6.33855C17.1648 7.63277 17.8127 9.21438 17.8127 11.0834C17.8127 11.8938 17.6692 12.6782 17.3822 13.4366C17.0944 14.1949 16.7172 14.8435 16.2505 15.3826L23.5562 22.687L22.7325 23.513ZM11.1277 16.6017C12.6754 16.6017 13.9825 16.0689 15.0488 15.0034C16.1144 13.9378 16.6472 12.6308 16.6472 11.0822C16.6472 9.53444 16.1144 8.22777 15.0488 7.16222C13.9833 6.09666 12.6766 5.56388 11.1288 5.56388C9.58105 5.56388 8.27399 6.09666 7.20766 7.16222C6.1421 8.22777 5.60932 9.53444 5.60932 11.0822C5.60932 12.63 6.1421 13.9367 7.20766 15.0022C8.27321 16.0678 9.57988 16.6017 11.1277 16.6017Z" fill="white"/>
</svg>
