<svg width="28" height="28" viewBox="0 0 28 28" fill="none" xmlns="http://www.w3.org/2000/svg">
<path d="M19.4688 3.9375C17.1237 3.9375 15.1025 5.05203 14 6.89828C12.8975 5.05203 10.8763 3.9375 8.53125 3.9375C6.8494 3.93953 5.23702 4.60853 4.04778 5.79778C2.85853 6.98702 2.18953 8.59941 2.1875 10.2813C2.1875 13.4083 4.15625 16.6764 8.02813 19.9927C9.81587 21.514 11.7462 22.8593 13.7922 24.01C13.856 24.0445 13.9274 24.0625 14 24.0625C14.0726 24.0625 14.144 24.0445 14.2078 24.01C16.2538 22.8593 18.1841 21.514 19.9719 19.9927C23.8438 16.6764 25.8125 13.4083 25.8125 10.2813C25.8105 8.59941 25.1415 6.98702 23.9522 5.79778C22.763 4.60853 21.1506 3.93953 19.4688 3.9375ZM14 23.1241C12.4688 22.2534 3.0625 16.6327 3.0625 10.2813C3.06424 8.83138 3.64096 7.44139 4.66618 6.41618C5.69139 5.39096 7.08138 4.81424 8.53125 4.8125C10.8402 4.8125 12.7805 6.04953 13.5953 8.04016C13.6283 8.1204 13.6843 8.18903 13.7564 8.23733C13.8285 8.28563 13.9133 8.31142 14 8.31142C14.0867 8.31142 14.1715 8.28563 14.2436 8.23733C14.3157 8.18903 14.3717 8.1204 14.4047 8.04016C15.2195 6.04953 17.1598 4.8125 19.4688 4.8125C20.9186 4.81424 22.3086 5.39096 23.3338 6.41618C24.359 7.44139 24.9358 8.83138 24.9375 10.2813C24.9375 16.625 15.5312 22.2534 14 23.1241Z" fill="white"/>
</svg>
