<svg width="27" height="27" viewBox="0 0 27 27" fill="none" xmlns="http://www.w3.org/2000/svg">
<path d="M18.7734 3.79688C16.5122 3.79688 14.5631 4.8716 13.5 6.65191C12.4369 4.8716 10.4878 3.79688 8.22656 3.79688C6.60478 3.79883 5.04999 4.44394 3.90322 5.59072C2.75644 6.73749 2.11133 8.29228 2.10938 9.91406C2.10938 12.9294 4.00781 16.0808 7.74141 19.2786C9.4653 20.7456 11.3266 22.0429 13.2996 23.1525C13.3612 23.1857 13.43 23.2031 13.5 23.2031C13.57 23.2031 13.6388 23.1857 13.7004 23.1525C15.6734 22.0429 17.5347 20.7456 19.2586 19.2786C22.9922 16.0808 24.8906 12.9294 24.8906 9.91406C24.8887 8.29228 24.2436 6.73749 23.0968 5.59072C21.95 4.44394 20.3952 3.79883 18.7734 3.79688ZM13.5 22.2982C12.0234 21.4587 2.95312 16.0386 2.95312 9.91406C2.9548 8.51597 3.51093 7.17563 4.49953 6.18703C5.48813 5.19843 6.82847 4.6423 8.22656 4.64062C10.453 4.64062 12.324 5.83348 13.1098 7.75301C13.1416 7.83038 13.1956 7.89656 13.2651 7.94314C13.3346 7.98972 13.4163 8.01458 13.5 8.01458C13.5837 8.01458 13.6654 7.98972 13.7349 7.94314C13.8044 7.89656 13.8584 7.83038 13.8902 7.75301C14.676 5.83348 16.547 4.64062 18.7734 4.64062C20.1715 4.6423 21.5119 5.19843 22.5005 6.18703C23.4891 7.17563 24.0452 8.51597 24.0469 9.91406C24.0469 16.0312 14.9766 21.4587 13.5 22.2982Z" fill="#3E3E3E"/>
</svg>
