<svg width="131" height="40" viewBox="0 0 131 40" fill="none" xmlns="http://www.w3.org/2000/svg">
<path d="M7.68 21.3C6.68 21.3 5.76667 21.1267 4.94 20.78C4.11333 20.4333 3.4 19.9467 2.8 19.32C2.2 18.6933 1.74 17.9533 1.42 17.1C1.1 16.2467 0.94 15.3133 0.94 14.3C0.94 13.3 1.1 12.3733 1.42 11.52C1.75333 10.6667 2.22 9.92667 2.82 9.3C3.42 8.66 4.14 8.16667 4.98 7.82C5.82 7.47333 6.74667 7.3 7.76 7.3C8.30667 7.3 8.81333 7.33333 9.28 7.4C9.74667 7.46667 10.1867 7.57333 10.6 7.72C11.0133 7.85333 11.4067 8.02667 11.78 8.24L11.86 11.16H10.62L10.1 8.18L11.36 8.58V9.72C10.8267 9.21333 10.28 8.85333 9.72 8.64C9.16 8.41333 8.56667 8.3 7.94 8.3C7.02 8.3 6.19333 8.53333 5.46 9C4.74 9.46667 4.16667 10.1467 3.74 11.04C3.32667 11.9333 3.12 13.02 3.12 14.3C3.12 15.58 3.32 16.6667 3.72 17.56C4.12 18.44 4.68667 19.1133 5.42 19.58C6.16667 20.0467 7.04667 20.28 8.06 20.28C8.63333 20.28 9.14667 20.2133 9.6 20.08C10.0667 19.9467 10.58 19.74 11.14 19.46L10.2 20.42V19.24C10.2 18.48 10.1933 17.7133 10.18 16.94C10.18 16.1667 10.1667 15.4 10.14 14.64H12.14C12.1267 15.3867 12.1133 16.1467 12.1 16.92C12.0867 17.68 12.08 18.4533 12.08 19.24V20.12C11.3867 20.48 10.6867 20.7667 9.98 20.98C9.27333 21.1933 8.50667 21.3 7.68 21.3ZM8.08 15.44V14.64H13.34V15.44L11.12 15.66H10.68L8.08 15.44ZM14.3175 21V20.18L16.9375 19.88H17.1375V21H14.3175ZM16.1375 21C16.1642 20.32 16.1775 19.64 16.1775 18.96C16.1908 18.28 16.1975 17.5933 16.1975 16.9C16.1975 16.1933 16.1975 15.4933 16.1975 14.8V13.82C16.1975 13.1267 16.1975 12.4333 16.1975 11.74C16.1975 11.0467 16.1908 10.3533 16.1775 9.66C16.1775 8.96667 16.1642 8.28 16.1375 7.6H18.1575C18.1442 8.26667 18.1308 8.94667 18.1175 9.64C18.1042 10.3333 18.0975 11.0267 18.0975 11.72C18.0975 12.4133 18.0975 13.1133 18.0975 13.82V14.56C18.0975 15.32 18.0975 16.0667 18.0975 16.8C18.0975 17.52 18.1042 18.2267 18.1175 18.92C18.1308 19.6133 18.1442 20.3067 18.1575 21H16.1375ZM17.1375 21V20H23.8375L23.1375 20.6L23.6775 17.44H24.8175L24.6775 21H17.1375ZM17.1375 14.64V13.7H21.6575V14.64H17.1375ZM21.3175 16.52L21.0175 14.3V13.9L21.3175 11.8H22.2375V16.52H21.3175ZM14.3175 8.42V7.6H17.1375V8.72H16.9375L14.3175 8.42ZM23.2775 11.14L22.7375 8L23.4375 8.6H17.1375V7.6H24.2775L24.4175 11.14H23.2775ZM28.5083 21V20.18L31.3083 19.88H31.7483L34.5483 20.18V21H28.5083ZM30.5283 21C30.5549 20.32 30.5683 19.64 30.5683 18.96C30.5816 18.28 30.5883 17.5933 30.5883 16.9C30.5883 16.1933 30.5883 15.4933 30.5883 14.8V13.82C30.5883 13.1267 30.5883 12.4333 30.5883 11.74C30.5883 11.0467 30.5816 10.3533 30.5683 9.66C30.5683 8.96667 30.5549 8.28 30.5283 7.6H32.5283C32.5149 8.26667 32.5016 8.94667 32.4883 9.64C32.4749 10.3333 32.4683 11.0267 32.4683 11.72C32.4683 12.4133 32.4683 13.1133 32.4683 13.82V14.8C32.4683 15.48 32.4683 16.1667 32.4683 16.86C32.4683 17.5533 32.4749 18.2467 32.4883 18.94C32.5016 19.62 32.5149 20.3067 32.5283 21H30.5283ZM25.8883 11.16L26.0483 7.6H37.0083L37.1683 11.16H36.0083L35.3883 7.6L36.3083 8.6H26.7483L27.6683 7.6L27.0483 11.16H25.8883ZM42.7355 21V20.18L45.3555 19.88H45.7755L48.3955 20.18V21H42.7355ZM44.5555 21C44.5821 20.32 44.5955 19.64 44.5955 18.96C44.6088 18.28 44.6155 17.5933 44.6155 16.9C44.6155 16.1933 44.6155 15.4933 44.6155 14.8V13.82C44.6155 13.1267 44.6155 12.4333 44.6155 11.74C44.6155 11.0467 44.6088 10.3533 44.5955 9.66C44.5955 8.96667 44.5821 8.28 44.5555 7.6H46.5755C46.5621 8.29333 46.5488 8.98667 46.5355 9.68C46.5221 10.36 46.5155 11.0533 46.5155 11.76C46.5155 12.4667 46.5155 13.2133 46.5155 14V14.6C46.5155 15.3467 46.5155 16.08 46.5155 16.8C46.5155 17.52 46.5221 18.2267 46.5355 18.92C46.5488 19.6133 46.5621 20.3067 46.5755 21H44.5555ZM53.0955 21.2C52.4688 21.2 51.9955 21.1067 51.6755 20.92C51.3688 20.7333 51.1555 20.4 51.0355 19.92L50.2355 16.72C50.1155 16.1733 49.9421 15.7667 49.7155 15.5C49.4888 15.22 49.1955 15.0333 48.8355 14.94C48.4888 14.8467 48.0421 14.8 47.4955 14.8H45.5755V13.9H48.0555C48.7755 13.9 49.3688 13.78 49.8355 13.54C50.3021 13.3 50.6488 12.9733 50.8755 12.56C51.1021 12.1333 51.2155 11.6533 51.2155 11.12C51.2155 10.28 50.9821 9.64 50.5155 9.2C50.0488 8.74667 49.3021 8.52 48.2755 8.52H45.5555V7.6H48.3355C49.8688 7.6 51.0621 7.90667 51.9155 8.52C52.7688 9.13333 53.1955 9.99333 53.1955 11.1C53.1955 11.66 53.0488 12.1933 52.7555 12.7C52.4621 13.2067 52.0155 13.6267 51.4155 13.96C50.8288 14.2933 50.0888 14.5 49.1955 14.58V14.42C49.5955 14.4467 49.9555 14.5133 50.2755 14.62C50.5955 14.7267 50.8755 14.8867 51.1155 15.1C51.3555 15.3 51.5621 15.56 51.7355 15.88C51.9088 16.2 52.0621 16.5867 52.1955 17.04L53.1555 20.36L52.4755 19.94L54.5955 20.18V21C54.4621 21.04 54.3155 21.0733 54.1555 21.1C54.0088 21.1267 53.8488 21.1467 53.6755 21.16C53.5021 21.1867 53.3088 21.2 53.0955 21.2ZM42.7355 8.42V7.6H45.5555V8.72H45.3555L42.7355 8.42ZM55.7628 21V20.18L58.3828 19.88H58.8028L61.4228 20.18V21H55.7628ZM57.5828 21C57.6095 20.32 57.6228 19.64 57.6228 18.96C57.6361 18.28 57.6428 17.5933 57.6428 16.9C57.6428 16.1933 57.6428 15.4933 57.6428 14.8V13.82C57.6428 13.1267 57.6428 12.4333 57.6428 11.74C57.6428 11.0467 57.6361 10.3533 57.6228 9.66C57.6228 8.96667 57.6095 8.28 57.5828 7.6H59.6028C59.5895 8.26667 59.5761 8.94667 59.5628 9.64C59.5495 10.3333 59.5428 11.0267 59.5428 11.72C59.5428 12.4133 59.5428 13.1133 59.5428 13.82V14.8C59.5428 15.48 59.5428 16.1667 59.5428 16.86C59.5428 17.5533 59.5495 18.2467 59.5628 18.94C59.5761 19.62 59.5895 20.3067 59.6028 21H57.5828ZM55.7628 8.42V7.6H61.4228V8.42L58.8028 8.72H58.3828L55.7628 8.42ZM63.1847 21V20.18L65.8047 19.88H66.0047V21H63.1847ZM65.0047 21C65.0314 20.32 65.0447 19.64 65.0447 18.96C65.058 18.2667 65.0647 17.5533 65.0647 16.82C65.0647 16.0867 65.0647 15.3333 65.0647 14.56V13.82C65.0647 13.1267 65.0647 12.4333 65.0647 11.74C65.0647 11.0467 65.058 10.3533 65.0447 9.66C65.0447 8.96667 65.0314 8.28 65.0047 7.6H67.0247C67.0114 8.26667 66.998 8.94667 66.9847 9.64C66.9714 10.3333 66.9647 11.0267 66.9647 11.72C66.9647 12.4133 66.9647 13.1133 66.9647 13.82V14.56C66.9647 15.32 66.9647 16.0667 66.9647 16.8C66.9647 17.52 66.9714 18.2267 66.9847 18.92C66.998 19.6133 67.0114 20.3067 67.0247 21H65.0047ZM66.0047 21V20.06H68.5847C69.6114 20.06 70.478 19.8333 71.1847 19.38C71.9047 18.9267 72.4514 18.2733 72.8247 17.42C73.198 16.5667 73.3847 15.5333 73.3847 14.32C73.3847 12.44 72.978 11.0067 72.1647 10.02C71.3514 9.02 70.218 8.52 68.7647 8.52H66.0047V7.6H69.0847C70.3647 7.6 71.4914 7.86 72.4647 8.38C73.438 8.9 74.198 9.66 74.7447 10.66C75.2914 11.6467 75.5647 12.8667 75.5647 14.32C75.5647 15.76 75.2647 16.98 74.6647 17.98C74.0647 18.9667 73.2447 19.72 72.2047 20.24C71.178 20.7467 70.0114 21 68.7047 21H66.0047ZM63.1847 8.42V7.6H66.0047V8.72H65.8047L63.1847 8.42ZM88.2519 21.3C87.4785 21.3 86.7252 21.1533 85.9919 20.86C85.2585 20.5533 84.5985 20.1067 84.0119 19.52C83.4252 18.9333 82.9585 18.2067 82.6119 17.34C82.2785 16.46 82.1119 15.4467 82.1119 14.3C82.1119 13.2067 82.2852 12.2267 82.6319 11.36C82.9785 10.4933 83.4385 9.76 84.0119 9.16C84.5985 8.56 85.2585 8.1 85.9919 7.78C86.7252 7.46 87.4785 7.3 88.2519 7.3C89.0252 7.3 89.7719 7.45333 90.4919 7.76C91.2252 8.05333 91.8785 8.5 92.4519 9.1C93.0385 9.68667 93.5052 10.4133 93.8519 11.28C94.1985 12.1467 94.3719 13.1533 94.3719 14.3C94.3719 15.3933 94.1985 16.3733 93.8519 17.24C93.5185 18.1067 93.0585 18.8467 92.4719 19.46C91.8985 20.06 91.2452 20.52 90.5119 20.84C89.7785 21.1467 89.0252 21.3 88.2519 21.3ZM88.2519 20.3C88.9452 20.3 89.5385 20.1333 90.0319 19.8C90.5385 19.4533 90.9452 19 91.2519 18.44C91.5719 17.8667 91.8052 17.2267 91.9519 16.52C92.0985 15.8 92.1719 15.06 92.1719 14.3C92.1719 13.5533 92.0985 12.8267 91.9519 12.12C91.8052 11.4 91.5719 10.7533 91.2519 10.18C90.9452 9.60667 90.5385 9.15333 90.0319 8.82C89.5385 8.47333 88.9452 8.3 88.2519 8.3C87.5585 8.3 86.9585 8.47333 86.4519 8.82C85.9585 9.15333 85.5519 9.60667 85.2319 10.18C84.9119 10.7533 84.6719 11.4 84.5119 12.12C84.3652 12.8267 84.2919 13.5533 84.2919 14.3C84.2919 15.06 84.3652 15.8 84.5119 16.52C84.6719 17.2267 84.9119 17.8667 85.2319 18.44C85.5519 19 85.9585 19.4533 86.4519 19.8C86.9585 20.1333 87.5585 20.3 88.2519 20.3ZM95.7042 21V20.18L98.3242 19.88H98.7642L101.384 20.18V21H95.7042ZM97.5242 21C97.5509 20.32 97.5642 19.64 97.5642 18.96C97.5776 18.28 97.5842 17.5933 97.5842 16.9C97.5842 16.1933 97.5842 15.4933 97.5842 14.8V13.82C97.5842 13.1267 97.5842 12.4333 97.5842 11.74C97.5842 11.0467 97.5776 10.3533 97.5642 9.66C97.5642 8.96667 97.5509 8.28 97.5242 7.6H99.5442C99.5309 8.26667 99.5176 8.94667 99.5042 9.64C99.4909 10.3333 99.4842 11.0267 99.4842 11.72C99.4842 12.4133 99.4842 13.1133 99.4842 13.82V14.56C99.4842 15.32 99.4842 16.0667 99.4842 16.8C99.4842 17.52 99.4909 18.2267 99.5042 18.92C99.5176 19.6133 99.5309 20.3067 99.5442 21H97.5242ZM98.5242 14.64V13.7H103.204V14.64H98.5242ZM102.864 16.72L102.564 14.5V13.9L102.864 11.8H103.784V16.72H102.864ZM95.7042 8.42V7.6H98.5242V8.72H98.3242L95.7042 8.42ZM104.664 11.14L104.124 8L104.824 8.6H98.5242V7.6H105.664L105.804 11.14H104.664ZM111.954 21V20.18L114.574 19.88H114.994L117.614 20.18V21H111.954ZM113.774 21C113.801 20.32 113.814 19.64 113.814 18.96C113.828 18.28 113.834 17.5933 113.834 16.9C113.834 16.1933 113.834 15.4933 113.834 14.8V13.82C113.834 13.1267 113.834 12.4333 113.834 11.74C113.834 11.0467 113.828 10.3533 113.814 9.66C113.814 8.96667 113.801 8.28 113.774 7.6H115.794C115.781 8.26667 115.768 8.94667 115.754 9.64C115.741 10.3333 115.734 11.0267 115.734 11.72C115.734 12.4133 115.734 13.1133 115.734 13.82V14.8C115.734 15.48 115.734 16.1667 115.734 16.86C115.734 17.5533 115.741 18.2467 115.754 18.94C115.768 19.62 115.781 20.3067 115.794 21H113.774ZM111.954 8.42V7.6H117.614V8.42L114.994 8.72H114.574L111.954 8.42ZM121.516 21V20.18L124.316 19.88H124.756L127.556 20.18V21H121.516ZM123.536 21C123.563 20.32 123.576 19.64 123.576 18.96C123.589 18.28 123.596 17.5933 123.596 16.9C123.596 16.1933 123.596 15.4933 123.596 14.8V13.82C123.596 13.1267 123.596 12.4333 123.596 11.74C123.596 11.0467 123.589 10.3533 123.576 9.66C123.576 8.96667 123.563 8.28 123.536 7.6H125.536C125.523 8.26667 125.509 8.94667 125.496 9.64C125.483 10.3333 125.476 11.0267 125.476 11.72C125.476 12.4133 125.476 13.1133 125.476 13.82V14.8C125.476 15.48 125.476 16.1667 125.476 16.86C125.476 17.5533 125.483 18.2467 125.496 18.94C125.509 19.62 125.523 20.3067 125.536 21H123.536ZM118.896 11.16L119.056 7.6H130.016L130.176 11.16H129.016L128.396 7.6L129.316 8.6H119.756L120.676 7.6L120.056 11.16H118.896Z" fill="#565656"/>
<path d="M23.18 36V35.328L24.416 35.268H24.68L26.108 35.328V36H23.18ZM23.924 36L26.78 27.912H27.872L30.752 36H29.432L26.996 28.932H26.924L26.576 30.456L24.692 36H23.924ZM25.304 33.468V32.796H28.952V33.468H25.304ZM27.944 36V35.328L29.576 35.268H29.936L31.532 35.328V36H27.944ZM34.4023 36.144C33.8263 36.144 33.3863 35.976 33.0823 35.64C32.7863 35.296 32.6383 34.776 32.6383 34.08L32.6503 30.564L33.0583 31.032L31.6303 30.756V30.228L33.4063 30.012L33.7663 30.048L33.7423 31.464V33.852C33.7423 34.332 33.8263 34.676 33.9943 34.884C34.1703 35.092 34.4383 35.196 34.7983 35.196C35.0143 35.196 35.2343 35.164 35.4583 35.1C35.6823 35.028 35.9023 34.928 36.1183 34.8C36.3423 34.672 36.5623 34.52 36.7783 34.344L36.8383 34.896H36.4543C36.3023 35.144 36.1223 35.364 35.9143 35.556C35.7063 35.74 35.4783 35.884 35.2303 35.988C34.9823 36.092 34.7063 36.144 34.4023 36.144ZM36.7903 36.096L36.6703 34.764L36.6103 34.752L36.6223 30.936L35.6023 30.756V30.228L37.3663 30.012L37.7263 30.048L37.7143 31.464V35.256L38.6863 35.436V36L36.7903 36.096ZM42.4764 36.144C41.8684 36.144 41.3444 36.02 40.9044 35.772C40.4724 35.516 40.1364 35.16 39.8964 34.704C39.6644 34.248 39.5484 33.708 39.5484 33.084C39.5484 32.452 39.6764 31.896 39.9324 31.416C40.1884 30.936 40.5404 30.564 40.9884 30.3C41.4364 30.028 41.9364 29.892 42.4884 29.892C42.9524 29.892 43.3484 29.96 43.6764 30.096C44.0124 30.224 44.2804 30.396 44.4804 30.612C44.6884 30.828 44.8244 31.06 44.8884 31.308C44.8644 31.484 44.8044 31.628 44.7084 31.74C44.6124 31.852 44.4684 31.908 44.2764 31.908C44.0684 31.908 43.9084 31.844 43.7964 31.716C43.6924 31.588 43.6124 31.436 43.5564 31.26L43.2084 30.144L43.9404 30.816C43.7644 30.728 43.5724 30.656 43.3644 30.6C43.1564 30.544 42.9124 30.516 42.6324 30.516C42.2564 30.516 41.9244 30.616 41.6364 30.816C41.3484 31.008 41.1244 31.288 40.9644 31.656C40.8124 32.024 40.7364 32.46 40.7364 32.964C40.7364 33.476 40.8164 33.908 40.9764 34.26C41.1444 34.604 41.3724 34.864 41.6604 35.04C41.9564 35.208 42.2964 35.292 42.6804 35.292C42.9604 35.292 43.2044 35.256 43.4124 35.184C43.6284 35.104 43.8164 35 43.9764 34.872C44.1364 34.736 44.2884 34.592 44.4324 34.44L44.8884 34.86C44.7364 35.084 44.5564 35.296 44.3484 35.496C44.1484 35.688 43.8964 35.844 43.5924 35.964C43.2884 36.084 42.9164 36.144 42.4764 36.144ZM47.2674 30.744V30.036H49.4874V30.744H47.2674ZM48.2274 36.12C47.7714 36.12 47.3994 35.992 47.1114 35.736C46.8234 35.48 46.6794 35.08 46.6794 34.536C46.6794 34.4 46.6794 34.264 46.6794 34.128C46.6874 33.984 46.6914 33.828 46.6914 33.66V30.744H45.6234V30.168L47.1714 29.976L46.7514 30.336L47.1354 28.368H47.8914L47.7354 30.504L47.7954 30.576V34.428C47.7954 34.756 47.8634 34.988 47.9994 35.124C48.1354 35.26 48.3274 35.328 48.5754 35.328C48.7354 35.328 48.8794 35.308 49.0074 35.268C49.1354 35.22 49.2514 35.168 49.3554 35.112L49.6314 35.616C49.5514 35.696 49.4434 35.776 49.3074 35.856C49.1714 35.928 49.0114 35.988 48.8274 36.036C48.6434 36.092 48.4434 36.12 48.2274 36.12ZM50.3288 36V35.376L51.6848 35.292H52.0328L53.3648 35.376V36H50.3288ZM51.2888 36C51.2888 35.744 51.2888 35.468 51.2888 35.172C51.2968 34.876 51.3008 34.576 51.3008 34.272C51.3008 33.968 51.3008 33.676 51.3008 33.396V32.76C51.3008 32.464 51.3008 32.188 51.3008 31.932C51.3008 31.668 51.2968 31.404 51.2888 31.14L50.2688 31.104V30.552L52.0448 29.988L52.4168 30.024L52.4048 31.428V33.396C52.4048 33.676 52.4048 33.968 52.4048 34.272C52.4128 34.576 52.4168 34.876 52.4168 35.172C52.4168 35.468 52.4168 35.744 52.4168 36H51.2888ZM51.8288 28.776C51.6048 28.776 51.4128 28.7 51.2528 28.548C51.1008 28.396 51.0248 28.208 51.0248 27.984C51.0248 27.752 51.1008 27.56 51.2528 27.408C51.4128 27.256 51.6048 27.18 51.8288 27.18C52.0608 27.18 52.2528 27.256 52.4048 27.408C52.5648 27.56 52.6448 27.752 52.6448 27.984C52.6448 28.208 52.5648 28.396 52.4048 28.548C52.2528 28.7 52.0608 28.776 51.8288 28.776ZM57.3952 36.144C56.8752 36.144 56.3872 36.028 55.9312 35.796C55.4832 35.556 55.1192 35.204 54.8392 34.74C54.5672 34.276 54.4312 33.712 54.4312 33.048C54.4312 32.376 54.5672 31.804 54.8392 31.332C55.1192 30.86 55.4832 30.504 55.9312 30.264C56.3872 30.016 56.8752 29.892 57.3952 29.892C57.9152 29.892 58.3992 30.012 58.8472 30.252C59.3032 30.492 59.6672 30.844 59.9392 31.308C60.2192 31.772 60.3592 32.336 60.3592 33C60.3592 33.656 60.2192 34.22 59.9392 34.692C59.6672 35.164 59.3032 35.524 58.8472 35.772C58.3992 36.02 57.9152 36.144 57.3952 36.144ZM57.3952 35.484C57.7632 35.484 58.0792 35.396 58.3432 35.22C58.6072 35.036 58.8072 34.764 58.9432 34.404C59.0792 34.036 59.1472 33.584 59.1472 33.048C59.1472 32.488 59.0792 32.024 58.9432 31.656C58.8072 31.288 58.6072 31.012 58.3432 30.828C58.0792 30.644 57.7632 30.552 57.3952 30.552C57.0272 30.552 56.7112 30.644 56.4472 30.828C56.1832 31.012 55.9832 31.288 55.8472 31.656C55.7112 32.016 55.6432 32.468 55.6432 33.012C55.6432 33.564 55.7112 34.024 55.8472 34.392C55.9832 34.752 56.1832 35.024 56.4472 35.208C56.7112 35.392 57.0272 35.484 57.3952 35.484ZM61.4379 36V35.376L62.7939 35.292H63.1419L64.4379 35.376V36H61.4379ZM62.3979 36C62.3979 35.744 62.3979 35.468 62.3979 35.172C62.4059 34.876 62.4099 34.576 62.4099 34.272C62.4099 33.968 62.4099 33.676 62.4099 33.396V32.76C62.4099 32.56 62.4099 32.372 62.4099 32.196C62.4099 32.012 62.4059 31.836 62.3979 31.668C62.3979 31.492 62.3979 31.316 62.3979 31.14L61.3779 31.104V30.552L62.9019 29.988L63.2739 30.024L63.4539 31.284L63.5139 31.296V33.396C63.5139 33.676 63.5139 33.968 63.5139 34.272C63.5219 34.576 63.5259 34.876 63.5259 35.172C63.5259 35.468 63.5259 35.744 63.5259 36H62.3979ZM65.4339 36V35.376L66.7659 35.292H67.1139L68.4459 35.376V36H65.4339ZM66.3699 36C66.3699 35.744 66.3699 35.468 66.3699 35.172C66.3699 34.876 66.3699 34.576 66.3699 34.272C66.3779 33.968 66.3819 33.676 66.3819 33.396V32.196C66.3819 31.708 66.2939 31.364 66.1179 31.164C65.9499 30.956 65.6819 30.852 65.3139 30.852C65.0979 30.852 64.8819 30.884 64.6659 30.948C64.4499 31.012 64.2299 31.104 64.0059 31.224C63.7899 31.344 63.5699 31.492 63.3459 31.668L63.2979 31.128H63.6459C63.7979 30.904 63.9779 30.7 64.1859 30.516C64.3939 30.324 64.6259 30.172 64.8819 30.06C65.1379 29.948 65.4179 29.892 65.7219 29.892C66.3139 29.892 66.7539 30.068 67.0419 30.42C67.3379 30.764 67.4859 31.28 67.4859 31.968V33.396C67.4859 33.676 67.4859 33.968 67.4859 34.272C67.4859 34.576 67.4859 34.876 67.4859 35.172C67.4859 35.468 67.4899 35.744 67.4979 36H66.3699ZM72.0765 36V35.328L73.6845 35.268H74.1165L75.7365 35.328V36H72.0765ZM73.2765 36C73.2765 35.584 73.2765 35.172 73.2765 34.764C73.2845 34.348 73.2885 33.932 73.2885 33.516C73.2885 33.1 73.2885 32.684 73.2885 32.268V31.68C73.2885 31.264 73.2885 30.852 73.2885 30.444C73.2885 30.028 73.2845 29.616 73.2765 29.208C73.2765 28.792 73.2765 28.376 73.2765 27.96H74.5365C74.5365 28.368 74.5325 28.78 74.5245 29.196C74.5245 29.612 74.5245 30.028 74.5245 30.444C74.5245 30.852 74.5245 31.264 74.5245 31.68V32.112C74.5245 32.552 74.5245 32.992 74.5245 33.432C74.5245 33.864 74.5245 34.296 74.5245 34.728C74.5325 35.152 74.5365 35.576 74.5365 36H73.2765ZM73.9485 32.232V31.524H79.2045V32.232H73.9485ZM77.4285 36V35.328L79.0365 35.268H79.4805L81.0885 35.328V36H77.4285ZM78.6285 36C78.6285 35.576 78.6285 35.152 78.6285 34.728C78.6365 34.304 78.6405 33.876 78.6405 33.444C78.6405 33.004 78.6405 32.56 78.6405 32.112V31.68C78.6405 31.264 78.6405 30.852 78.6405 30.444C78.6405 30.028 78.6365 29.616 78.6285 29.208C78.6285 28.792 78.6285 28.376 78.6285 27.96H79.8885C79.8885 28.368 79.8845 28.78 79.8765 29.196C79.8765 29.612 79.8765 30.028 79.8765 30.444C79.8765 30.852 79.8765 31.264 79.8765 31.68V32.268C79.8765 32.676 79.8765 33.088 79.8765 33.504C79.8765 33.92 79.8765 34.336 79.8765 34.752C79.8845 35.168 79.8885 35.584 79.8885 36H78.6285ZM72.0765 28.632V27.96H75.7365V28.632L74.1165 28.692H73.6845L72.0765 28.632ZM77.4285 28.632V27.96H81.0885V28.632L79.4805 28.692H79.0365L77.4285 28.632ZM84.8171 36.144C84.2971 36.144 83.8091 36.028 83.3531 35.796C82.9051 35.556 82.5411 35.204 82.2611 34.74C81.9891 34.276 81.8531 33.712 81.8531 33.048C81.8531 32.376 81.9891 31.804 82.2611 31.332C82.5411 30.86 82.9051 30.504 83.3531 30.264C83.8091 30.016 84.2971 29.892 84.8171 29.892C85.3371 29.892 85.8211 30.012 86.2691 30.252C86.7251 30.492 87.0891 30.844 87.3611 31.308C87.6411 31.772 87.7811 32.336 87.7811 33C87.7811 33.656 87.6411 34.22 87.3611 34.692C87.0891 35.164 86.7251 35.524 86.2691 35.772C85.8211 36.02 85.3371 36.144 84.8171 36.144ZM84.8171 35.484C85.1851 35.484 85.5011 35.396 85.7651 35.22C86.0291 35.036 86.2291 34.764 86.3651 34.404C86.5011 34.036 86.5691 33.584 86.5691 33.048C86.5691 32.488 86.5011 32.024 86.3651 31.656C86.2291 31.288 86.0291 31.012 85.7651 30.828C85.5011 30.644 85.1851 30.552 84.8171 30.552C84.4491 30.552 84.1331 30.644 83.8691 30.828C83.6051 31.012 83.4051 31.288 83.2691 31.656C83.1331 32.016 83.0651 32.468 83.0651 33.012C83.0651 33.564 83.1331 34.024 83.2691 34.392C83.4051 34.752 83.6051 35.024 83.8691 35.208C84.1331 35.392 84.4491 35.484 84.8171 35.484ZM91.3086 36.144C90.7326 36.144 90.2926 35.976 89.9886 35.64C89.6926 35.296 89.5446 34.776 89.5446 34.08L89.5566 30.564L89.9646 31.032L88.5366 30.756V30.228L90.3126 30.012L90.6726 30.048L90.6486 31.464V33.852C90.6486 34.332 90.7326 34.676 90.9006 34.884C91.0766 35.092 91.3446 35.196 91.7046 35.196C91.9206 35.196 92.1406 35.164 92.3646 35.1C92.5886 35.028 92.8086 34.928 93.0246 34.8C93.2486 34.672 93.4686 34.52 93.6846 34.344L93.7446 34.896H93.3606C93.2086 35.144 93.0286 35.364 92.8206 35.556C92.6126 35.74 92.3846 35.884 92.1366 35.988C91.8886 36.092 91.6126 36.144 91.3086 36.144ZM93.6966 36.096L93.5766 34.764L93.5166 34.752L93.5286 30.936L92.5086 30.756V30.228L94.2726 30.012L94.6326 30.048L94.6206 31.464V35.256L95.5926 35.436V36L93.6966 36.096ZM98.6838 36.144C98.2598 36.144 97.8758 36.104 97.5318 36.024C97.1878 35.952 96.8878 35.856 96.6318 35.736L96.5838 34.248H97.3158L97.6398 35.712H97.0278V35.136C97.2198 35.248 97.4598 35.344 97.7478 35.424C98.0358 35.496 98.3478 35.532 98.6838 35.532C99.0038 35.532 99.2638 35.488 99.4638 35.4C99.6638 35.304 99.8078 35.184 99.8958 35.04C99.9838 34.888 100.028 34.724 100.028 34.548C100.028 34.284 99.9358 34.076 99.7518 33.924C99.5678 33.772 99.2718 33.632 98.8638 33.504L98.5158 33.384C98.1158 33.256 97.7758 33.116 97.4958 32.964C97.2158 32.804 97.0038 32.616 96.8598 32.4C96.7158 32.176 96.6438 31.912 96.6438 31.608C96.6438 31.272 96.7358 30.976 96.9198 30.72C97.1038 30.456 97.3678 30.252 97.7118 30.108C98.0638 29.964 98.4758 29.892 98.9478 29.892C99.3078 29.892 99.6478 29.932 99.9678 30.012C100.296 30.092 100.576 30.192 100.808 30.312L100.796 31.704H100.076L99.7998 30.372H100.304V30.852C100.112 30.732 99.8998 30.644 99.6678 30.588C99.4438 30.532 99.2038 30.504 98.9478 30.504C98.5318 30.504 98.2238 30.588 98.0238 30.756C97.8238 30.924 97.7238 31.128 97.7238 31.368C97.7238 31.616 97.8078 31.812 97.9758 31.956C98.1518 32.092 98.4518 32.232 98.8758 32.376L99.1638 32.472C99.6038 32.608 99.9678 32.764 100.256 32.94C100.552 33.108 100.772 33.304 100.916 33.528C101.068 33.752 101.144 34.02 101.144 34.332C101.144 34.676 101.044 34.984 100.844 35.256C100.652 35.528 100.372 35.744 100.004 35.904C99.6438 36.064 99.2038 36.144 98.6838 36.144ZM105.159 36.144C104.551 36.144 104.031 36.02 103.599 35.772C103.167 35.524 102.835 35.172 102.603 34.716C102.379 34.26 102.267 33.724 102.267 33.108C102.267 32.484 102.383 31.932 102.615 31.452C102.855 30.964 103.187 30.584 103.611 30.312C104.043 30.032 104.539 29.892 105.099 29.892C105.611 29.892 106.051 29.988 106.419 30.18C106.787 30.372 107.071 30.644 107.271 30.996C107.479 31.348 107.583 31.768 107.583 32.256C107.583 32.416 107.571 32.576 107.547 32.736C107.531 32.896 107.511 33.024 107.487 33.12H102.963V32.532H106.239C106.351 32.46 106.423 32.376 106.455 32.28C106.495 32.176 106.515 32.064 106.515 31.944C106.515 31.624 106.459 31.36 106.347 31.152C106.235 30.944 106.071 30.792 105.855 30.696C105.647 30.592 105.395 30.54 105.099 30.54C104.779 30.54 104.491 30.628 104.235 30.804C103.987 30.972 103.787 31.236 103.635 31.596C103.491 31.956 103.419 32.42 103.419 32.988C103.419 33.484 103.499 33.908 103.659 34.26C103.827 34.604 104.059 34.868 104.355 35.052C104.659 35.236 105.011 35.328 105.411 35.328C105.851 35.328 106.211 35.248 106.491 35.088C106.779 34.92 107.031 34.708 107.247 34.452L107.655 34.788C107.479 35.052 107.279 35.288 107.055 35.496C106.839 35.704 106.579 35.864 106.275 35.976C105.971 36.088 105.599 36.144 105.159 36.144Z" fill="#565656"/>
</svg>
