<svg width="32" height="32" viewBox="0 0 32 32" fill="none" xmlns="http://www.w3.org/2000/svg">
<path d="M7.48665 26.6667C6.87331 26.6667 6.36131 26.4613 5.95065 26.0507C5.53998 25.64 5.3342 25.1276 5.33331 24.5133V7.48668C5.33331 6.87334 5.53909 6.36134 5.95065 5.95068C6.3622 5.54001 6.8742 5.33423 7.48665 5.33334H16.0253V6.66668H7.48665C7.2822 6.66668 7.0942 6.75201 6.92265 6.92268C6.75109 7.09334 6.66576 7.28134 6.66665 7.48668V24.5133C6.66665 24.7178 6.75198 24.9058 6.92265 25.0773C7.09331 25.2489 7.28131 25.3342 7.48665 25.3333H16.0253V26.6667H7.48665ZM21.9493 20.7173L21.0133 19.7587L24.1053 16.6667H12.256V15.3333H24.1053L21.012 12.24L21.9493 11.2827L26.6666 16L21.9493 20.7173Z" fill="#3E3E3E"/>
</svg>
